<svg width="265" height="127" viewBox="0 0 265 127" fill="none" xmlns="http://www.w3.org/2000/svg">
<path d="M234 124C234 125.657 232.657 127 231 127H212C210.343 127 209 125.657 209 124V26H234V124ZM209 1V26H182C180.343 26 179 24.6569 179 23V4C179 2.34315 180.343 1 182 1H209ZM262 1C263.657 1 265 2.34315 265 4V23C265 24.6569 263.657 26 262 26H234V1H262Z" fill="black"/>
<path d="M91 4C91 2.34315 92.3431 1 94 1H113C114.657 1 116 2.34315 116 4V124C116 125.657 114.657 127 113 127H94C92.3431 127 91 125.657 91 124V4Z" fill="black"/>
<path d="M172.395 104.716C174.738 107.059 174.738 110.858 172.395 113.201L163.203 122.394C160.86 124.737 157.061 124.737 154.717 122.394L112.18 79.8567C113.18 80.122 114.289 79.8661 115.073 79.0823L130.917 63.2375L172.395 104.716ZM98.2691 60.5295C97.2998 62.7291 97.7153 65.3917 99.5172 67.1936L112.18 79.8567C111.686 79.7255 111.218 79.4697 110.831 79.0823L97.3951 65.6467C96.224 64.4752 96.224 62.576 97.3951 61.4045L98.2691 60.5295ZM157.406 1.39476C158.577 0.223188 160.476 0.223188 161.648 1.39476L175.084 14.8293C176.255 16.0008 176.255 17.9 175.084 19.0715L130.917 63.2375L117.195 49.5159C115.393 47.714 112.73 47.2985 110.531 48.2678L157.406 1.39476ZM98.2691 60.5295C98.5603 59.8687 98.9759 59.2495 99.5172 58.7082L108.71 49.5159C109.251 48.9746 109.87 48.559 110.531 48.2678L98.2691 60.5295Z" fill="black"/>
<rect x="86" y="1" width="25" height="86" rx="6" transform="rotate(90 86 1)" fill="black"/>
<path d="M61 4C61 2.34315 62.3431 1 64 1H83C84.6569 1 86 2.34315 86 4V124C86 125.657 84.6569 127 83 127H64C62.3431 127 61 125.657 61 124V4Z" fill="black"/>
<path d="M25 124C25 125.657 23.6569 127 22 127H3C1.34315 127 3.02e-08 125.657 0 124V89H25V124ZM86 89H25V64H86V89ZM22 1C23.6569 1 25 2.34315 25 4V64H0V4C1.9328e-06 2.34315 1.34315 1 3 1H22Z" fill="black"/>
</svg>
